<svg width="750" height="88" viewBox="0 0 750 88" fill="none" xmlns="http://www.w3.org/2000/svg">
<g clip-path="url(#clip0_0_2103)">
<rect opacity="0.35" x="673" y="35.6667" width="42" height="20.6667" rx="4.33333" stroke="black" stroke-width="2"/>
<path opacity="0.4" d="M718 42V50C719.609 49.3224 720.656 47.7463 720.656 46C720.656 44.2537 719.609 42.6776 718 42Z" fill="black"/>
<rect x="676" y="38.6667" width="36" height="14.6667" rx="2.66667" fill="black"/>
<path fill-rule="evenodd" clip-rule="evenodd" d="M642.242 51.4622C644.793 49.3046 648.529 49.3046 651.08 51.4622C651.208 51.5783 651.284 51.7423 651.287 51.9153C651.291 52.0882 651.223 52.2552 651.1 52.3763L647.105 56.4075C646.987 56.5259 646.828 56.5921 646.661 56.5921C646.495 56.5921 646.335 56.526 646.218 56.4075L642.223 52.3763C642.099 52.255 642.032 52.0874 642.035 51.9144C642.039 51.7415 642.114 51.5781 642.242 51.4622ZM636.911 46.0843C642.408 40.9715 650.92 40.9715 656.416 46.0843C656.54 46.2042 656.611 46.3689 656.612 46.5413C656.614 46.7138 656.546 46.8799 656.425 47.0023L654.116 49.3353C653.878 49.5735 653.493 49.5789 653.249 49.347C651.444 47.7126 649.096 46.8068 646.661 46.8069C644.228 46.808 641.882 47.7137 640.078 49.347C639.834 49.5789 639.449 49.5735 639.211 49.3353L636.902 47.0023C636.781 46.8801 636.713 46.7139 636.715 46.5413C636.716 46.3688 636.787 46.2042 636.911 46.0843ZM631.58 40.721C640.01 32.6419 653.31 32.6419 661.74 40.721C661.862 40.8409 661.932 41.0041 661.933 41.1751C661.934 41.3463 661.867 41.5117 661.746 41.6331L659.434 43.9661C659.195 44.2053 658.809 44.2084 658.567 43.973C655.356 40.9194 651.093 39.2163 646.661 39.2161C642.229 39.2161 637.966 40.9192 634.754 43.973C634.512 44.209 634.125 44.2059 633.887 43.9661L631.574 41.6331C631.454 41.5116 631.387 41.3463 631.388 41.1751C631.389 41.0042 631.458 40.8408 631.58 40.721Z" fill="black"/>
<path d="M591.333 48.6663C592.437 48.6663 593.333 49.5619 593.333 50.6663V54.6663C593.333 55.7709 592.438 56.6663 591.333 56.6663H589.333C588.228 56.6663 587.333 55.7709 587.333 54.6663V50.6663C587.333 49.5619 588.229 48.6663 589.333 48.6663H591.333ZM600.666 44.6663C601.77 44.6663 602.666 45.5619 602.666 46.6663V54.6663C602.666 55.7709 601.771 56.6663 600.666 56.6663H598.666C597.562 56.6661 596.666 55.7708 596.666 54.6663V46.6663C596.666 45.562 597.562 44.6665 598.666 44.6663H600.666ZM610 40.0003C611.104 40.0005 612 40.8959 612 42.0003V54.6663C612 55.7708 611.104 56.6661 610 56.6663H608C606.895 56.6663 606 55.7709 606 54.6663V42.0003C606 40.8957 606.895 40.0003 608 40.0003H610ZM619.333 35.3333C620.438 35.3333 621.333 36.2287 621.333 37.3333V54.6663C621.333 55.7709 620.438 56.6663 619.333 56.6663H617.333C616.228 56.6663 615.333 55.7709 615.333 54.6663V37.3333C615.333 36.2287 616.228 35.3333 617.333 35.3333H619.333Z" fill="black"/>
<g clip-path="url(#clip1_0_2103)">
<path d="M75.5529 58.4785C80.5705 58.4785 83.5509 54.5547 83.5509 47.8965C83.5509 41.3613 80.3791 37.7793 75.6623 37.7793C71.3693 37.7793 68.3341 40.6641 68.3341 44.6973C68.3341 48.4844 71.0685 51.2461 74.8283 51.2461C77.1388 51.2461 79.0119 50.1797 79.9416 48.3066H80.174C80.133 52.9414 78.4787 55.5938 75.5939 55.5938C73.8986 55.5938 72.5451 54.6641 72.1213 53.1602H68.6076C69.1818 56.373 71.9435 58.4785 75.5529 58.4785ZM75.6759 48.5254C73.3791 48.5254 71.7931 46.9121 71.7931 44.5879C71.7931 42.3594 73.4611 40.6504 75.6896 40.6504C77.9181 40.6504 79.5861 42.3867 79.5861 44.6562C79.5861 46.8984 77.9591 48.5254 75.6759 48.5254ZM89.1843 45.2305C90.4831 45.2305 91.3718 44.3281 91.3718 43.1113C91.3718 41.8945 90.4831 40.9922 89.1843 40.9922C87.8991 40.9922 86.9968 41.8945 86.9968 43.1113C86.9968 44.3281 87.8991 45.2305 89.1843 45.2305ZM89.1843 55.2656C90.4831 55.2656 91.3718 54.3496 91.3718 53.1465C91.3718 51.9297 90.4831 51.0273 89.1843 51.0273C87.8991 51.0273 86.9968 51.9297 86.9968 53.1465C86.9968 54.3496 87.8991 55.2656 89.1843 55.2656ZM104.443 58H107.82V54.2129H110.486V51.3008H107.82V38.2715H102.843C100.163 42.3457 97.3606 46.8848 94.804 51.3281V54.2129H104.443V58ZM98.0716 51.1777C99.9993 47.8281 102.283 44.1777 104.306 41.0879H104.497V51.3828H98.0716V51.1777ZM118.334 58H121.861V38.2715H118.348L113.193 41.8945V45.2168L118.101 41.7441H118.334V58Z" fill="black"/>
</g>
</g>
<defs>
<clipPath id="clip0_0_2103">
<rect width="750" height="88" fill="white"/>
</clipPath>
<clipPath id="clip1_0_2103">
<rect width="108" height="34" fill="white" transform="translate(42 30)"/>
</clipPath>
</defs>
</svg>
