<svg width="56" height="44" viewBox="0 0 56 44" fill="none" xmlns="http://www.w3.org/2000/svg">
<mask id="mask0_71_142" style="mask-type:alpha" maskUnits="userSpaceOnUse" x="0" y="0" width="56" height="44">
<rect width="56" height="44" fill="#D9D9D9"/>
</mask>
<g mask="url(#mask0_71_142)">
<path d="M50 6C51.1046 6 52 6.89543 52 8V33C52 34.1046 51.1046 35 50 35V10C50 8.89543 49.1046 8 48 8H9C9 6.89543 9.89543 6 11 6H50Z" fill="url(#paint0_linear_71_142)"/>
<rect x="3.5" y="9.5" width="45" height="28" rx="1.5" fill="url(#paint1_linear_71_142)" stroke="url(#paint2_linear_71_142)"/>
<path d="M14.6713 16.6687C14.9442 15.8287 16.1326 15.8287 16.4055 16.6687L17.7901 20.93H22.2707C23.1539 20.93 23.5211 22.0603 22.8066 22.5794L19.1817 25.213L20.5663 29.4743C20.8392 30.3143 19.8778 31.0129 19.1633 30.4937L15.5384 27.8601L11.9135 30.4937C11.1989 31.0129 10.2375 30.3143 10.5105 29.4743L11.895 25.213L8.27017 22.5794C7.55562 22.0603 7.92284 20.93 8.80608 20.93H13.2867L14.6713 16.6687Z" fill="url(#paint3_linear_71_142)" stroke="url(#paint4_linear_71_142)" stroke-width="0.6"/>
<rect x="28" y="19" width="16" height="3" fill="white"/>
<rect x="28" y="27" width="10" height="3" fill="white"/>
</g>
<defs>
<linearGradient id="paint0_linear_71_142" x1="9" y1="7.5" x2="47.809" y2="42.3827" gradientUnits="userSpaceOnUse">
<stop offset="0.708854" stop-color="#FFC978"/>
<stop offset="1" stop-color="#E3A74D"/>
</linearGradient>
<linearGradient id="paint1_linear_71_142" x1="3" y1="10.5" x2="42" y2="48" gradientUnits="userSpaceOnUse">
<stop stop-color="#EBB665"/>
<stop offset="0.333789" stop-color="#FFDDAA"/>
<stop offset="0.546722" stop-color="#FFC978"/>
<stop offset="1" stop-color="#E3A74D"/>
</linearGradient>
<linearGradient id="paint2_linear_71_142" x1="10.5" y1="12.5" x2="26" y2="38" gradientUnits="userSpaceOnUse">
<stop stop-color="white"/>
<stop offset="1" stop-color="#D3973E"/>
</linearGradient>
<linearGradient id="paint3_linear_71_142" x1="11.5" y1="21.5" x2="18.5" y2="31" gradientUnits="userSpaceOnUse">
<stop stop-color="white"/>
<stop offset="1" stop-color="#FFF3E0"/>
</linearGradient>
<linearGradient id="paint4_linear_71_142" x1="10" y1="21" x2="21" y2="32" gradientUnits="userSpaceOnUse">
<stop stop-color="#FFFAF2"/>
<stop offset="1" stop-color="#E6A23D"/>
</linearGradient>
</defs>
</svg>
