<svg width="42" height="42" viewBox="0 0 42 42" fill="none" xmlns="http://www.w3.org/2000/svg">
<path d="M25.8824 6.64208C26.1998 6.32036 26.6293 6.1339 27.0811 6.12173C27.5328 6.10956 27.9718 6.27263 28.306 6.57679C28.6403 6.88096 28.8439 7.30264 28.8742 7.75354C28.9046 8.20444 28.7593 8.64961 28.4689 8.99583L28.3674 9.10783L16.4744 21.0945L28.3569 32.8825C28.6677 33.1908 28.8517 33.6045 28.8724 34.0419C28.8931 34.4793 28.7492 34.9085 28.4689 35.245L28.3674 35.3578C28.0589 35.6685 27.6451 35.8523 27.2077 35.8729C26.7704 35.8935 26.3412 35.7493 26.0049 35.469L25.892 35.3675L12.767 22.3475C12.4563 22.039 12.2725 21.6252 12.2519 21.1878C12.2314 20.7505 12.3755 20.3213 12.6559 19.985L12.7574 19.8721L25.8824 6.64208Z" fill="#333333"/>
</svg>
