<svg width="46" height="46" viewBox="0 0 46 46" fill="none" xmlns="http://www.w3.org/2000/svg">
<mask id="mask0_0_2287" style="mask-type:alpha" maskUnits="userSpaceOnUse" x="0" y="0" width="46" height="46">
<rect width="46" height="46" fill="#D9D9D9"/>
</mask>
<g mask="url(#mask0_0_2287)">
<path d="M38 10H8C6.89543 10 6 10.8954 6 12V33C6 34.1046 6.89543 35 8 35H17.6716C18.202 35 18.7107 35.2107 19.0858 35.5858L21.5858 38.0858C22.3668 38.8668 23.6332 38.8668 24.4142 38.0858L26.9142 35.5858C27.2893 35.2107 27.798 35 28.3284 35H38C39.1046 35 40 34.1046 40 33V12C40 10.8954 39.1046 10 38 10Z" stroke="#333333" stroke-width="3" stroke-linecap="round" stroke-linejoin="round"/>
<path d="M13 19H18.5" stroke="#2590FD" stroke-width="3" stroke-linecap="round"/>
<mask id="path-4-outside-1_0_2287" maskUnits="userSpaceOnUse" x="17.4685" y="3.75736" width="28.9914" height="28.9914" fill="black">
<rect fill="white" x="17.4685" y="3.75736" width="28.9914" height="28.9914"/>
<path d="M29.3257 25.1342C29.1848 25.275 29.0053 25.3703 28.8098 25.4084L24.5707 26.2335C24.2227 26.3012 23.9169 25.9952 23.9844 25.6473L24.8089 21.4074C24.847 21.2121 24.9423 21.0323 25.083 20.8916L33.906 12.0686L38.1486 16.3113L29.3257 25.1342ZM41.5101 11.5355C41.9006 11.926 41.9004 12.5592 41.5101 12.9497L39.5628 14.8971L35.3202 10.6544L37.2675 8.70711C37.658 8.31694 38.2913 8.31686 38.6817 8.70711L41.5101 11.5355Z"/>
</mask>
<path d="M29.3257 25.1342C29.1848 25.275 29.0053 25.3703 28.8098 25.4084L24.5707 26.2335C24.2227 26.3012 23.9169 25.9952 23.9844 25.6473L24.8089 21.4074C24.847 21.2121 24.9423 21.0323 25.083 20.8916L33.906 12.0686L38.1486 16.3113L29.3257 25.1342ZM41.5101 11.5355C41.9006 11.926 41.9004 12.5592 41.5101 12.9497L39.5628 14.8971L35.3202 10.6544L37.2675 8.70711C37.658 8.31694 38.2913 8.31686 38.6817 8.70711L41.5101 11.5355Z" fill="url(#paint0_linear_0_2287)"/>
<path d="M29.3257 25.1342L31.4466 27.2559L31.447 27.2555L29.3257 25.1342ZM28.8098 25.4084L28.2367 22.4636L28.2366 22.4636L28.8098 25.4084ZM24.5707 26.2335L25.1434 29.1784L25.1439 29.1783L24.5707 26.2335ZM23.9844 25.6473L21.0396 25.0746L21.0393 25.076L23.9844 25.6473ZM24.8089 21.4074L21.8643 20.8335L21.8641 20.8347L24.8089 21.4074ZM25.083 20.8916L22.9617 18.7703L22.9613 18.7707L25.083 20.8916ZM33.906 12.0686L36.0273 9.94731L33.906 7.82599L31.7847 9.94731L33.906 12.0686ZM38.1486 16.3113L40.2699 18.4326L42.3913 16.3113L40.2699 14.1899L38.1486 16.3113ZM41.5101 12.9497L43.6315 15.0711L43.6323 15.0702L41.5101 12.9497ZM39.5628 14.8971L37.4415 17.0184L39.5628 19.1397L41.6842 17.0184L39.5628 14.8971ZM35.3202 10.6544L33.1989 8.53309L31.0776 10.6544L33.1989 12.7757L35.3202 10.6544ZM37.2675 8.70711L35.1471 6.58492L35.1462 6.58579L37.2675 8.70711ZM38.6817 8.70711L40.803 6.58579L40.8025 6.58526L38.6817 8.70711ZM29.3257 25.1342L27.2048 23.0125C27.4874 22.73 27.8471 22.5394 28.2367 22.4636L28.8098 25.4084L29.383 28.3531C30.1635 28.2012 30.8823 27.82 31.4466 27.2559L29.3257 25.1342ZM28.8098 25.4084L28.2366 22.4636L23.9974 23.2888L24.5707 26.2335L25.1439 29.1783L29.3831 28.3531L28.8098 25.4084ZM24.5707 26.2335L23.9979 23.2887C25.7399 22.9499 27.2665 24.4814 26.9295 26.2186L23.9844 25.6473L21.0393 25.076C20.5673 27.5089 22.7056 29.6525 25.1434 29.1784L24.5707 26.2335ZM23.9844 25.6473L26.9292 26.2199L27.7537 21.9801L24.8089 21.4074L21.8641 20.8347L21.0396 25.0746L23.9844 25.6473ZM24.8089 21.4074L27.7535 21.9813C27.6777 22.3699 27.4877 22.7294 27.2048 23.0125L25.083 20.8916L22.9613 18.7707C22.3969 19.3353 22.0162 20.0542 21.8643 20.8335L24.8089 21.4074ZM25.083 20.8916L27.2044 23.0129L36.0273 14.1899L33.906 12.0686L31.7847 9.94731L22.9617 18.7703L25.083 20.8916ZM33.906 12.0686L31.7847 14.1899L36.0273 18.4326L38.1486 16.3113L40.2699 14.1899L36.0273 9.94731L33.906 12.0686ZM38.1486 16.3113L36.0273 14.1899L27.2044 23.0129L29.3257 25.1342L31.447 27.2555L40.2699 18.4326L38.1486 16.3113ZM41.5101 11.5355L39.3888 13.6569C38.6068 12.8748 38.6086 11.6093 39.388 10.8293L41.5101 12.9497L43.6323 15.0702C45.1921 13.5091 45.1943 10.9771 43.6315 9.41421L41.5101 11.5355ZM41.5101 12.9497L39.3888 10.8284L37.4415 12.7757L39.5628 14.8971L41.6842 17.0184L43.6315 15.0711L41.5101 12.9497ZM39.5628 14.8971L41.6842 12.7757L37.4415 8.53309L35.3202 10.6544L33.1989 12.7757L37.4415 17.0184L39.5628 14.8971ZM35.3202 10.6544L37.4415 12.7757L39.3888 10.8284L37.2675 8.70711L35.1462 6.58579L33.1989 8.53309L35.3202 10.6544ZM37.2675 8.70711L39.388 10.8293C38.6074 11.6092 37.3423 11.6099 36.5609 10.8289L38.6817 8.70711L40.8025 6.58526C39.2403 5.02379 36.7086 5.02468 35.1471 6.58492L37.2675 8.70711ZM38.6817 8.70711L36.5604 10.8284L39.3888 13.6569L41.5101 11.5355L43.6315 9.41421L40.803 6.58579L38.6817 8.70711Z" fill="white" mask="url(#path-4-outside-1_0_2287)"/>
</g>
<defs>
<linearGradient id="paint0_linear_0_2287" x1="44.5061" y1="0.640902" x2="16.0088" y2="21.9928" gradientUnits="userSpaceOnUse">
<stop stop-color="#1782FC"/>
<stop offset="1" stop-color="#46B2FF"/>
</linearGradient>
</defs>
</svg>
