<svg width="32" height="32" viewBox="0 0 32 32" fill="none" xmlns="http://www.w3.org/2000/svg">
<rect width="32" height="32" rx="3" fill="#F23212"/>
<path fill-rule="evenodd" clip-rule="evenodd" d="M16.4607 22C17.0129 22.0001 17.4607 22.4478 17.4607 23V24C17.4607 24.5522 17.0129 24.9999 16.4607 25H15.4607C14.9084 25 14.4607 24.5523 14.4607 24V23C14.4607 22.4477 14.9084 22 15.4607 22H16.4607ZM16.9216 7C17.4887 7.00021 17.9423 7.47143 17.9207 8.03809L17.4978 19.0381C17.4772 19.575 17.0351 20 16.4978 20H15.4226C14.8853 19.9999 14.4442 19.575 14.4236 19.0381L14.0007 8.03809C13.9791 7.4713 14.4325 7 14.9998 7H16.9216Z" fill="white"/>
</svg>
