<svg width="34" height="34" viewBox="0 0 34 34" fill="none" xmlns="http://www.w3.org/2000/svg">
<mask id="mask0_0_1443" style="mask-type:alpha" maskUnits="userSpaceOnUse" x="0" y="0" width="34" height="34">
<rect width="34" height="34" fill="#D9D9D9"/>
</mask>
<g mask="url(#mask0_0_1443)">
<path d="M0 2C0 0.89543 0.895431 0 2 0H28C29.1046 0 30 0.89543 30 2V19.8668C30 20.2789 29.8727 20.6808 29.6356 21.0178L21.0975 33.151C20.7229 33.6833 20.1127 34 19.4618 34H2C0.895431 34 0 33.1046 0 32V2Z" fill="url(#paint0_linear_0_1443)"/>
<rect x="5" y="8" width="19" height="3" fill="white"/>
<rect x="5" y="15.5" width="14" height="3" fill="white"/>
<rect x="5" y="23" width="9" height="3" fill="white"/>
<mask id="path-6-outside-1_0_1443" maskUnits="userSpaceOnUse" x="14.8637" y="10.0668" width="22.1603" height="28.3827" fill="black">
<rect fill="white" x="14.8637" y="10.0668" width="22.1603" height="28.3827"/>
<path d="M25.1761 31.5877C25.0765 31.7601 24.9278 31.8987 24.7488 31.986L20.8677 33.8803C20.5491 34.0357 20.1745 33.8192 20.1496 33.4657L19.8487 29.1569C19.8349 28.9584 19.8805 28.7601 19.98 28.5877L26.2188 17.7819L31.4149 20.7819L25.1761 31.5877ZM33.4258 15.2988C33.904 15.5749 34.0677 16.1866 33.7919 16.6649L32.4149 19.0498L27.2188 16.0498L28.5957 13.6649C28.8719 13.1869 29.4836 13.0229 29.9617 13.2988L33.4258 15.2988Z"/>
</mask>
<path d="M25.1761 31.5877C25.0765 31.7601 24.9278 31.8987 24.7488 31.986L20.8677 33.8803C20.5491 34.0357 20.1745 33.8192 20.1496 33.4657L19.8487 29.1569C19.8349 28.9584 19.8805 28.7601 19.98 28.5877L26.2188 17.7819L31.4149 20.7819L25.1761 31.5877ZM33.4258 15.2988C33.904 15.5749 34.0677 16.1866 33.7919 16.6649L32.4149 19.0498L27.2188 16.0498L28.5957 13.6649C28.8719 13.1869 29.4836 13.0229 29.9617 13.2988L33.4258 15.2988Z" fill="url(#paint1_linear_0_1443)"/>
<path d="M25.1761 31.5877L26.908 32.5881L26.9082 32.5877L25.1761 31.5877ZM24.7488 31.986L23.8717 30.1886L23.8716 30.1887L24.7488 31.986ZM20.8677 33.8803L21.7446 35.6778L21.7449 35.6776L20.8677 33.8803ZM20.1496 33.4657L18.1545 33.6051L18.1546 33.606L20.1496 33.4657ZM19.8487 29.1569L17.8535 29.2954L17.8535 29.2963L19.8487 29.1569ZM19.98 28.5877L18.2479 27.5877L18.2477 27.5881L19.98 28.5877ZM26.2188 17.7819L27.2188 16.0498L25.4867 15.0498L24.4867 16.7819L26.2188 17.7819ZM31.4149 20.7819L33.147 21.7819L34.147 20.0498L32.4149 19.0498L31.4149 20.7819ZM33.7919 16.6649L35.5239 17.6649L35.5243 17.6641L33.7919 16.6649ZM32.4149 19.0498L31.4149 20.7819L33.147 21.7819L34.147 20.0498L32.4149 19.0498ZM27.2188 16.0498L25.4867 15.0498L24.4867 16.7819L26.2188 17.7819L27.2188 16.0498ZM28.5957 13.6649L26.8641 12.6641L26.8637 12.6649L28.5957 13.6649ZM29.9617 13.2988L30.9617 11.5668L30.9613 11.5665L29.9617 13.2988ZM25.1761 31.5877L23.4443 30.5874C23.5443 30.4142 23.6935 30.2756 23.8717 30.1886L24.7488 31.986L25.626 33.7834C26.162 33.5218 26.6088 33.1061 26.908 32.5881L25.1761 31.5877ZM24.7488 31.986L23.8716 30.1887L19.9904 32.0829L20.8677 33.8803L21.7449 35.6776L25.6261 33.7834L24.7488 31.986ZM20.8677 33.8803L19.9907 32.0828C20.9478 31.6158 22.0703 32.2665 22.1447 33.3255L20.1496 33.4657L18.1546 33.606C18.2787 35.372 20.1504 36.4555 21.7446 35.6778L20.8677 33.8803ZM20.1496 33.4657L22.1448 33.3264L21.8438 29.0176L19.8487 29.1569L17.8535 29.2963L18.1545 33.6051L20.1496 33.4657ZM19.8487 29.1569L21.8439 29.0184C21.8576 29.2155 21.8124 29.4137 21.7122 29.5874L19.98 28.5877L18.2477 27.5881C17.9486 28.1065 17.8122 28.7012 17.8535 29.2954L19.8487 29.1569ZM19.98 28.5877L21.712 29.5877L27.9508 18.7819L26.2188 17.7819L24.4867 16.7819L18.2479 27.5877L19.98 28.5877ZM26.2188 17.7819L25.2188 19.5139L30.4149 22.5139L31.4149 20.7819L32.4149 19.0498L27.2188 16.0498L26.2188 17.7819ZM31.4149 20.7819L29.6829 19.7819L23.4441 30.5877L25.1761 31.5877L26.9082 32.5877L33.147 21.7819L31.4149 20.7819ZM33.4258 15.2988L32.4258 17.0309C31.9467 16.7543 31.7841 16.1429 32.0594 15.6656L33.7919 16.6649L35.5243 17.6641C36.3513 16.2304 35.8613 14.3955 34.4258 13.5668L33.4258 15.2988ZM33.7919 16.6649L32.0598 15.6649L30.6829 18.0498L32.4149 19.0498L34.147 20.0498L35.5239 17.6649L33.7919 16.6649ZM32.4149 19.0498L33.4149 17.3178L28.2187 14.3178L27.2188 16.0498L26.2188 17.7819L31.4149 20.7819L32.4149 19.0498ZM27.2188 16.0498L28.9508 17.0498L30.3278 14.6649L28.5957 13.6649L26.8637 12.6649L25.4867 15.0498L27.2188 16.0498ZM28.5957 13.6649L30.3273 14.6656C30.0514 15.1431 29.4407 15.3072 28.9622 15.0311L29.9617 13.2988L30.9613 11.5665C29.5265 10.7386 27.6925 11.2307 26.8641 12.6641L28.5957 13.6649ZM29.9617 13.2988L28.9617 15.0309L32.4258 17.0309L33.4258 15.2988L34.4258 13.5668L30.9617 11.5668L29.9617 13.2988Z" fill="#F5F5F5" mask="url(#path-6-outside-1_0_1443)"/>
</g>
<defs>
<linearGradient id="paint0_linear_0_1443" x1="24.949" y1="6.23333" x2="0.21451" y2="11.5415" gradientUnits="userSpaceOnUse">
<stop stop-color="#1782FC"/>
<stop offset="1" stop-color="#46B2FF"/>
</linearGradient>
<linearGradient id="paint1_linear_0_1443" x1="33.5" y1="4" x2="11.5" y2="32" gradientUnits="userSpaceOnUse">
<stop stop-color="#1782FC"/>
<stop offset="1" stop-color="#46B2FF"/>
</linearGradient>
</defs>
</svg>
