<svg width="85" height="85" viewBox="0 0 85 85" fill="none" xmlns="http://www.w3.org/2000/svg">
<mask id="mask0_0_1551" style="mask-type:alpha" maskUnits="userSpaceOnUse" x="0" y="0" width="85" height="85">
<rect width="85" height="85" fill="#D9D9D9"/>
</mask>
<g mask="url(#mask0_0_1551)">
<g filter="url(#filter0_d_0_1551)">
<path d="M0 0H76V68C76 72.4183 72.4183 76 68 76H8C3.58172 76 0 72.4183 0 68V0Z" fill="url(#paint0_linear_0_1551)"/>
</g>
<path d="M36.258 31.246V33.092H13.326V31.246H17.408V18.428L19.436 18.532V31.246H24.558V14.918H14.756V13.046H35.218V14.918H26.638V21.236H34.256V23.238H26.638V31.246H36.258ZM60.8898 15.23V20.222H58.9658V16.946H41.8578V20.196H39.9598V15.23H45.0558C44.8824 14.97 44.6831 14.71 44.4577 14.45C44.2498 14.1727 44.0331 13.904 43.8078 13.644C43.5824 13.384 43.3658 13.1413 43.1578 12.916C42.9498 12.6907 42.7591 12.5 42.5858 12.344L44.0678 11.2C44.2411 11.3733 44.4491 11.5987 44.6918 11.876C44.9518 12.136 45.2118 12.422 45.4718 12.734C45.7318 13.046 45.9831 13.358 46.2258 13.67C46.4858 13.982 46.7111 14.2593 46.9018 14.502L46.0958 15.23H49.4758V11.044L51.3738 11.096V15.23H54.7798L53.8438 14.58C54.1038 14.3373 54.3638 14.0687 54.6238 13.774C54.8838 13.4793 55.1351 13.176 55.3778 12.864C55.6204 12.552 55.8458 12.2487 56.0538 11.954C56.2791 11.6593 56.4784 11.382 56.6518 11.122L58.1598 12.084C58.0211 12.292 57.8478 12.5347 57.6398 12.812C57.4318 13.0893 57.2151 13.3753 56.9898 13.67C56.7818 13.9473 56.5564 14.2247 56.3138 14.502C56.0884 14.7793 55.8804 15.022 55.6898 15.23H60.8898ZM51.3738 26.072H59.2778V30.622C59.2778 31.1247 59.2344 31.532 59.1478 31.844C59.0611 32.1387 58.8964 32.3813 58.6538 32.572C58.4284 32.7627 58.0991 32.9013 57.6658 32.988C57.2324 33.092 56.6691 33.1873 55.9758 33.274L54.6758 33.43L54.0258 31.584L55.4818 31.454C55.9151 31.4193 56.2531 31.376 56.4958 31.324C56.7384 31.272 56.9204 31.194 57.0418 31.09C57.1631 30.986 57.2411 30.8473 57.2758 30.674C57.3104 30.5007 57.3278 30.2753 57.3278 29.998V27.814H51.3738V34.86L49.4758 34.886V27.814H43.4958V33.3H41.6498V26.072H49.4758V24.018H43.3918V18.818H57.4318V24.018H51.3738V26.072ZM45.2118 22.51H55.6118V20.352H45.2118V22.51ZM14.808 50.742C14.6347 50.7593 14.4613 50.7853 14.288 50.82C14.1147 50.8373 13.8893 50.8633 13.612 50.898L13.17 49.13C13.4647 49.026 13.664 48.9393 13.768 48.87C13.872 48.7833 14.002 48.6447 14.158 48.454C14.4527 48.0727 14.7733 47.6133 15.12 47.076C15.484 46.5213 15.8393 45.932 16.186 45.308C16.55 44.6667 16.8967 44.008 17.226 43.332C17.5727 42.656 17.876 42.006 18.136 41.382L19.852 42.084C19.6093 42.6387 19.332 43.228 19.02 43.852C18.708 44.476 18.3787 45.0913 18.032 45.698C17.6853 46.3047 17.33 46.8853 16.966 47.44C16.6193 47.9947 16.29 48.48 15.978 48.896C16.082 48.896 16.2727 48.8873 16.55 48.87C16.8273 48.8527 17.1307 48.8353 17.46 48.818C17.8067 48.8007 18.1533 48.7833 18.5 48.766C18.8467 48.7487 19.1413 48.74 19.384 48.74C19.7133 48.2027 20.0253 47.6827 20.32 47.18C20.632 46.6773 20.9093 46.2007 21.152 45.75L22.764 46.582C22.3653 47.2927 21.906 48.0727 21.386 48.922C20.866 49.754 20.3373 50.5687 19.8 51.366C19.28 52.146 18.7773 52.874 18.292 53.55C17.8067 54.226 17.3993 54.7633 17.07 55.162C17.33 55.1273 17.7027 55.0753 18.188 55.006C18.6907 54.9367 19.1933 54.8673 19.696 54.798C20.216 54.7287 20.684 54.668 21.1 54.616C21.516 54.5467 21.776 54.5033 21.88 54.486L21.906 56.384C21.75 56.4013 21.386 56.4533 20.814 56.54C20.2593 56.6093 19.644 56.6873 18.968 56.774C18.3093 56.8607 17.6767 56.9473 17.07 57.034C16.4807 57.1033 16.0733 57.1553 15.848 57.19C15.5707 57.2247 15.302 57.268 15.042 57.32C14.7993 57.3547 14.5307 57.4153 14.236 57.502L13.794 55.656C14.1927 55.5173 14.4787 55.396 14.652 55.292C14.8253 55.188 15.0073 55.0147 15.198 54.772C15.614 54.2867 16.082 53.6713 16.602 52.926C17.1393 52.1807 17.6853 51.3833 18.24 50.534L14.808 50.742ZM21.23 51.886C22.1487 51.574 23.0933 51.1667 24.064 50.664C25.052 50.144 26.0053 49.572 26.924 48.948C27.8427 48.3067 28.692 47.6307 29.472 46.92C30.2693 46.192 30.9367 45.464 31.474 44.736H23.258V42.864H33.944V44.684C33.424 45.3773 32.878 46.036 32.306 46.66C31.734 47.2667 31.136 47.856 30.512 48.428C30.928 48.6187 31.3873 48.844 31.89 49.104C32.41 49.3467 32.9473 49.6153 33.502 49.91C34.074 50.1873 34.6373 50.482 35.192 50.794C35.764 51.106 36.3013 51.418 36.804 51.73L35.894 53.446C35.374 53.082 34.7933 52.718 34.152 52.354C33.528 51.9727 32.904 51.6087 32.28 51.262C31.656 50.9153 31.058 50.6033 30.486 50.326C29.9313 50.0313 29.4633 49.7887 29.082 49.598C27.106 51.1233 24.8527 52.458 22.322 53.602L21.23 51.886ZM29.758 61.584H35.998V63.352H21.776V61.584H27.834V56.306H23.31V54.486H34.594V56.306H29.758V61.584ZM12.91 61.09C13.3433 61.0033 13.924 60.8907 14.652 60.752C15.38 60.596 16.134 60.44 16.914 60.284C17.7113 60.1107 18.4913 59.9373 19.254 59.764C20.0167 59.5907 20.6493 59.4347 21.152 59.296L21.256 61.142C20.7187 61.2807 20.0947 61.4367 19.384 61.61C18.6907 61.766 17.9713 61.922 17.226 62.078C16.498 62.2513 15.7873 62.416 15.094 62.572C14.4007 62.728 13.794 62.858 13.274 62.962L12.91 61.09ZM61.7738 42.708V44.32H55.0138V45.854H53.1158V44.32H47.3698V45.854H45.4718V44.32H38.7118V42.708H45.4718V40.576L47.3698 40.68V42.708H53.1158V40.576L55.0138 40.68V42.708H61.7738ZM40.1678 46.504H60.2918V51.002H58.4458V48.038H42.0658V51.002H40.1678V46.504ZM57.3018 49.91V55.084H43.2098V49.91H57.3018ZM55.4298 51.392H45.0818V53.602H55.4298V51.392ZM41.4938 57.034H58.9918V64.158H57.0158V62.962H43.4698V64.132H41.4938V57.034ZM43.4698 58.594V61.402H57.0158V58.594H43.4698Z" fill="white"/>
<path d="M76 0L80 6H76V0Z" fill="#03428A"/>
</g>
<defs>
<filter id="filter0_d_0_1551" x="-2" y="-2" width="88" height="88" filterUnits="userSpaceOnUse" color-interpolation-filters="sRGB">
<feFlood flood-opacity="0" result="BackgroundImageFix"/>
<feColorMatrix in="SourceAlpha" type="matrix" values="0 0 0 0 0 0 0 0 0 0 0 0 0 0 0 0 0 0 127 0" result="hardAlpha"/>
<feOffset dx="4" dy="4"/>
<feGaussianBlur stdDeviation="3"/>
<feComposite in2="hardAlpha" operator="out"/>
<feColorMatrix type="matrix" values="0 0 0 0 0.0901961 0 0 0 0 0.509804 0 0 0 0 0.988235 0 0 0 0.15 0"/>
<feBlend mode="normal" in2="BackgroundImageFix" result="effect1_dropShadow_0_1551"/>
<feBlend mode="normal" in="SourceGraphic" in2="effect1_dropShadow_0_1551" result="shape"/>
</filter>
<linearGradient id="paint0_linear_0_1551" x1="63.2041" y1="13.9333" x2="1.31845" y2="28.9852" gradientUnits="userSpaceOnUse">
<stop stop-color="#1782FC"/>
<stop offset="1" stop-color="#46B2FF"/>
</linearGradient>
</defs>
</svg>
