<svg width="42" height="42" viewBox="0 0 42 42" fill="none" xmlns="http://www.w3.org/2000/svg">
<path d="M21 36.9856C20.4429 36.9856 19.9286 36.8142 19.4786 36.4499C19.1143 36.1499 10.2215 29.2713 6.66432 23.6784C5.48575 21.8356 3.85718 19.3284 3.85718 15.7713C3.85718 9.83559 8.29289 5.01416 13.7143 5.01416C16.4786 5.01416 19.1143 6.27845 21 8.48559C22.8643 6.25702 25.4786 5.01416 28.2643 5.01416C33.7072 5.01416 38.1215 9.83559 38.1215 15.7713C38.1215 19.2642 36.6 21.6642 35.3572 23.6142L35.3143 23.6784C31.7572 29.2713 22.8643 36.1713 22.5 36.4499C22.0715 36.7927 21.5572 36.9856 21 36.9856Z" fill="#E5404F"/>
</svg>
