<svg width="33" height="33" viewBox="0 0 33 33" fill="none" xmlns="http://www.w3.org/2000/svg">
<rect x="0.5" y="0.5" width="32" height="32" rx="1" fill="#1882FC" fill-opacity="0.1" stroke="#AFD3FF"/>
<path d="M17.4376 7.5L17.0476 20.292H15.2796L14.8896 7.5H17.4376ZM16.1376 25.7C15.843 25.7 15.5916 25.6827 15.3836 25.648C15.1756 25.6133 15.0023 25.5353 14.8636 25.414C14.7423 25.2927 14.647 25.128 14.5776 24.92C14.5256 24.712 14.4996 24.426 14.4996 24.062C14.4996 23.7153 14.5256 23.438 14.5776 23.23C14.647 23.0047 14.7423 22.84 14.8636 22.736C15.0023 22.6147 15.1756 22.5367 15.3836 22.502C15.5916 22.45 15.843 22.424 16.1376 22.424C16.727 22.424 17.1516 22.528 17.4116 22.736C17.6716 22.9267 17.8016 23.3687 17.8016 24.062C17.8016 24.7727 17.6716 25.2233 17.4116 25.414C17.1516 25.6047 16.727 25.7 16.1376 25.7Z" fill="#1882FC"/>
</svg>
