<svg width="68" height="68" viewBox="0 0 68 68" fill="none" xmlns="http://www.w3.org/2000/svg">
<path d="M47 20H42.1779C41.9046 20 41.6432 19.8882 41.4545 19.6905L37.3864 15.4286C36.8203 14.8355 36.0361 14.5 35.2163 14.5H27.272C26.3863 14.5 25.5459 14.8913 24.9759 15.5692L21.5497 19.6436C21.3597 19.8696 21.0796 20 20.7843 20H15C10.0294 20 6 24.0294 6 29V49C6 53.9706 10.0294 58 15 58H32.5H50C54.9706 58 59 53.9706 59 49V32" stroke="#666666" stroke-width="4" stroke-linecap="round"/>
<path d="M59 13C60.1046 13 61 13.8954 61 15V18H64C65.1046 18 66 18.8954 66 20C66 21.1046 65.1046 22 64 22H61V25C61 26.1046 60.1046 27 59 27C57.8954 27 57 26.1046 57 25V22H54C52.8954 22 52 21.1046 52 20C52 18.8954 52.8954 18 54 18H57V15C57 13.8954 57.8954 13 59 13Z" fill="#1782FC"/>
<circle cx="33" cy="39" r="10" stroke="#666666" stroke-width="4"/>
<circle cx="17" cy="29" r="2" fill="#666666"/>
</svg>
