<svg width="750" height="626" viewBox="0 0 750 626" fill="none" xmlns="http://www.w3.org/2000/svg">
<rect width="750" height="626" fill="url(#paint0_linear_71_126)"/>
<mask id="mask0_71_126" style="mask-type:alpha" maskUnits="userSpaceOnUse" x="0" y="0" width="750" height="626">
<rect width="750" height="626" fill="url(#paint1_linear_71_126)"/>
</mask>
<g mask="url(#mask0_71_126)">
<g opacity="0.6">
<g opacity="0.5" filter="url(#filter0_g_71_126)">
<path d="M48.6829 572.688C19.3218 582.53 2.66049 568.587 -2 560.386V592H753V504C693.579 548.083 608.816 494.773 576.484 513.227C544.152 531.68 510.072 523.479 475.118 528.605C440.164 533.731 416.571 572.688 389.481 572.688C362.392 572.688 328.312 560.386 281.125 560.386C233.938 560.386 219.082 552.184 174.516 548.083C129.95 543.983 85.3843 560.386 48.6829 572.688Z" fill="url(#paint2_linear_71_126)"/>
</g>
<g opacity="0.5" filter="url(#filter1_g_71_126)">
<path d="M65.3685 632.414C37.0268 638.786 -4.30524 635.069 -17 632.414V651H750V590.815C714.573 602.321 669.403 571.344 638.404 565.148C607.405 558.953 596.777 579.309 559.579 590.815C522.38 602.321 488.724 581.079 450.64 579.309C412.556 577.539 394.842 593.471 355.872 603.206C316.902 612.942 289.446 584.62 242.505 603.206C195.564 621.793 153.937 617.367 122.938 615.597C91.939 613.827 100.796 624.448 65.3685 632.414Z" fill="url(#paint3_linear_71_126)"/>
</g>
<g opacity="0.4" filter="url(#filter2_g_71_126)">
<path d="M32.6692 460.797C2.5 447.87 -18.8725 464.735 -31 468.632V532.249C120.16 533.293 415.902 540.472 410.786 532.249C398.5 512.5 356 518 309 505.5C253.734 490.802 242.191 509.397 224 505.5C205.809 501.603 188.594 489.378 165.205 478.985C146.494 470.67 104.887 478.985 85.9434 478.985C67 478.985 54.4986 470.151 32.6692 460.797Z" fill="url(#paint4_linear_71_126)"/>
</g>
<path opacity="0.5" d="M63.6692 635.427C33.5 622.5 6.62746 629.566 -5.5 633.464V706.879C145.66 707.923 446.902 715.102 441.786 706.879C429.5 687.13 387 692.63 340 680.13C284.734 665.432 273.191 684.027 255 680.13C236.809 676.233 218.5 659.13 196.205 653.615C176.329 648.698 140.5 661.13 116.943 653.615C93.3868 646.099 85.4986 644.781 63.6692 635.427Z" fill="url(#paint5_linear_71_126)"/>
<path opacity="0.4" d="M784.962 631.288C817.218 627.139 841.959 627.19 854.077 629.915L854.077 675.275C703.035 676.005 399.503 676.191 407.141 675.275C463.577 668.5 459.113 646.202 508.577 653.5C569.577 662.5 575.192 645.996 593.781 645.996C615.414 645.996 630.779 641.8 652.53 638.036C672.39 634.598 704.138 641.8 729.324 641.8C754.51 641.8 760.3 634.46 784.962 631.288Z" fill="url(#paint6_linear_71_126)"/>
</g>
<g filter="url(#filter5_g_71_126)">
<path d="M65.3685 176.414C37.0268 182.786 -4.30524 179.069 -17 176.414V195H750V134.815C714.573 146.321 669.403 115.344 638.404 109.148C607.405 102.953 596.777 123.309 559.579 134.815C522.38 146.321 488.724 125.079 450.64 123.309C412.556 121.539 394.842 137.471 355.872 147.206C316.902 156.942 289.446 128.62 242.505 147.206C195.564 165.793 153.937 161.367 122.938 159.597C91.939 157.827 100.796 168.448 65.3685 176.414Z" fill="url(#paint7_linear_71_126)"/>
</g>
<g filter="url(#filter6_g_71_126)">
<path d="M65.6692 179.427C35.5 166.5 8.62746 173.566 -3.5 177.464V250.879C147.66 251.923 448.902 259.102 443.786 250.879C431.5 231.13 389 236.63 342 224.13C286.734 209.432 275.191 228.027 257 224.13C238.809 220.233 220.5 203.13 198.205 197.615C178.329 192.698 142.5 205.13 118.943 197.615C95.3868 190.099 87.4986 188.781 65.6692 179.427Z" fill="url(#paint8_linear_71_126)"/>
</g>
</g>
<defs>
<filter id="filter0_g_71_126" x="-3.9" y="502.1" width="758.8" height="91.8" filterUnits="userSpaceOnUse" color-interpolation-filters="sRGB">
<feFlood flood-opacity="0" result="BackgroundImageFix"/>
<feBlend mode="normal" in="SourceGraphic" in2="BackgroundImageFix" result="shape"/>
<feTurbulence type="fractalNoise" baseFrequency="0.1149425283074379 0.1149425283074379" numOctaves="3" seed="765" />
<feDisplacementMap in="shape" scale="3.7999999523162842" xChannelSelector="R" yChannelSelector="G" result="displacedImage" width="100%" height="100%" />
<feMerge result="effect1_texture_71_126">
<feMergeNode in="displacedImage"/>
</feMerge>
</filter>
<filter id="filter1_g_71_126" x="-18.9" y="562.1" width="770.8" height="90.8" filterUnits="userSpaceOnUse" color-interpolation-filters="sRGB">
<feFlood flood-opacity="0" result="BackgroundImageFix"/>
<feBlend mode="normal" in="SourceGraphic" in2="BackgroundImageFix" result="shape"/>
<feTurbulence type="fractalNoise" baseFrequency="0.1149425283074379 0.1149425283074379" numOctaves="3" seed="765" />
<feDisplacementMap in="shape" scale="3.7999999523162842" xChannelSelector="R" yChannelSelector="G" result="displacedImage" width="100%" height="100%" />
<feMerge result="effect1_texture_71_126">
<feMergeNode in="displacedImage"/>
</feMerge>
</filter>
<filter id="filter2_g_71_126" x="-32.9" y="454.1" width="445.652" height="83.947" filterUnits="userSpaceOnUse" color-interpolation-filters="sRGB">
<feFlood flood-opacity="0" result="BackgroundImageFix"/>
<feBlend mode="normal" in="SourceGraphic" in2="BackgroundImageFix" result="shape"/>
<feTurbulence type="fractalNoise" baseFrequency="0.1149425283074379 0.1149425283074379" numOctaves="3" seed="765" />
<feDisplacementMap in="shape" scale="3.7999999523162842" xChannelSelector="R" yChannelSelector="G" result="displacedImage" width="100%" height="100%" />
<feMerge result="effect1_texture_71_126">
<feMergeNode in="displacedImage"/>
</feMerge>
</filter>
<filter id="filter5_g_71_126" x="-18.9" y="106.1" width="770.8" height="90.8" filterUnits="userSpaceOnUse" color-interpolation-filters="sRGB">
<feFlood flood-opacity="0" result="BackgroundImageFix"/>
<feBlend mode="normal" in="SourceGraphic" in2="BackgroundImageFix" result="shape"/>
<feTurbulence type="fractalNoise" baseFrequency="0.1149425283074379 0.1149425283074379" numOctaves="3" seed="765" />
<feDisplacementMap in="shape" scale="3.7999999523162842" xChannelSelector="R" yChannelSelector="G" result="displacedImage" width="100%" height="100%" />
<feMerge result="effect1_texture_71_126">
<feMergeNode in="displacedImage"/>
</feMerge>
</filter>
<filter id="filter6_g_71_126" x="-5.4" y="170.1" width="451.151" height="86.577" filterUnits="userSpaceOnUse" color-interpolation-filters="sRGB">
<feFlood flood-opacity="0" result="BackgroundImageFix"/>
<feBlend mode="normal" in="SourceGraphic" in2="BackgroundImageFix" result="shape"/>
<feTurbulence type="fractalNoise" baseFrequency="0.1149425283074379 0.1149425283074379" numOctaves="3" seed="765" />
<feDisplacementMap in="shape" scale="3.7999999523162842" xChannelSelector="R" yChannelSelector="G" result="displacedImage" width="100%" height="100%" />
<feMerge result="effect1_texture_71_126">
<feMergeNode in="displacedImage"/>
</feMerge>
</filter>
<linearGradient id="paint0_linear_71_126" x1="375" y1="110" x2="375" y2="626" gradientUnits="userSpaceOnUse">
<stop stop-color="#C3E9FF"/>
<stop offset="1" stop-color="#C3E9FF" stop-opacity="0"/>
</linearGradient>
<linearGradient id="paint1_linear_71_126" x1="375" y1="110" x2="375" y2="626" gradientUnits="userSpaceOnUse">
<stop stop-color="#C3E9FF"/>
<stop offset="1" stop-color="#C3E9FF" stop-opacity="0"/>
</linearGradient>
<linearGradient id="paint2_linear_71_126" x1="352.44" y1="548.506" x2="352.44" y2="592" gradientUnits="userSpaceOnUse">
<stop stop-color="#ACE1FF"/>
<stop offset="1" stop-color="#ACE1FF" stop-opacity="0"/>
</linearGradient>
<linearGradient id="paint3_linear_71_126" x1="343.074" y1="608" x2="343.074" y2="651" gradientUnits="userSpaceOnUse">
<stop stop-color="#ACE1FF"/>
<stop offset="1" stop-color="#ACE1FF" stop-opacity="0"/>
</linearGradient>
<linearGradient id="paint4_linear_71_126" x1="176.43" y1="496.534" x2="176.43" y2="536.147" gradientUnits="userSpaceOnUse">
<stop stop-color="#ACE1FF"/>
<stop offset="1" stop-color="#ACE1FF" stop-opacity="0"/>
</linearGradient>
<linearGradient id="paint5_linear_71_126" x1="204.512" y1="669.864" x2="204.512" y2="710.777" gradientUnits="userSpaceOnUse">
<stop stop-color="#ACE1FF"/>
<stop offset="1" stop-color="#ACE1FF" stop-opacity="0"/>
</linearGradient>
<linearGradient id="paint6_linear_71_126" x1="644.194" y1="652.222" x2="644.194" y2="675.894" gradientUnits="userSpaceOnUse">
<stop stop-color="#ACE1FF"/>
<stop offset="1" stop-color="#ACE1FF" stop-opacity="0"/>
</linearGradient>
<linearGradient id="paint7_linear_71_126" x1="343.074" y1="152" x2="343.074" y2="195" gradientUnits="userSpaceOnUse">
<stop stop-color="#ACE1FF"/>
<stop offset="1" stop-color="#ACE1FF" stop-opacity="0"/>
</linearGradient>
<linearGradient id="paint8_linear_71_126" x1="206.512" y1="213.864" x2="206.512" y2="254.777" gradientUnits="userSpaceOnUse">
<stop stop-color="#ACE1FF"/>
<stop offset="1" stop-color="#ACE1FF" stop-opacity="0"/>
</linearGradient>
</defs>
</svg>
