<svg width="702" height="604" viewBox="0 0 702 604" fill="none" xmlns="http://www.w3.org/2000/svg">
<rect width="702" height="604" rx="16" fill="white"/>
<rect width="702" height="604" rx="16" fill="url(#paint0_linear_71_130)"/>
<rect width="702" height="604" rx="16" fill="url(#paint1_linear_71_130)"/>
<mask id="mask0_71_130" style="mask-type:alpha" maskUnits="userSpaceOnUse" x="212" y="0" width="490" height="86">
<path d="M212 0H686C694.837 0 702 7.16344 702 16V86H212V0Z" fill="#D9D9D9"/>
</mask>
<g mask="url(#mask0_71_130)">
<path d="M376.5 74C341.415 71.1553 283.5 88 246 88H713.5C687 81.5 664.5 77 631 74C596.822 70.9393 552 40.6735 511 39C478.5 38.9999 432 78.5 376.5 74Z" fill="url(#paint2_linear_71_130)"/>
<path d="M635.5 12.8827C664.62 6.46635 701 36.8828 742.5 44.3827H511C516.333 43.716 535.249 36.8827 560.5 36.8827C596 36.8827 606 19.3828 635.5 12.8827Z" fill="url(#paint3_linear_71_130)"/>
<circle cx="408" cy="29" r="12" fill="url(#paint4_linear_71_130)"/>
</g>
<defs>
<linearGradient id="paint0_linear_71_130" x1="702" y1="14.9505" x2="52.9452" y2="606.136" gradientUnits="userSpaceOnUse">
<stop stop-color="#E3EFFF"/>
<stop offset="0.246617" stop-color="#EDF5FF"/>
<stop offset="0.481442" stop-color="#C0DAFF"/>
<stop offset="0.706744" stop-color="#F4F8FF"/>
<stop offset="0.8307" stop-color="#C0DAFF"/>
<stop offset="1" stop-color="#F8FAFF"/>
</linearGradient>
<linearGradient id="paint1_linear_71_130" x1="499.5" y1="286.053" x2="701.067" y2="-21.0445" gradientUnits="userSpaceOnUse">
<stop stop-color="#D9F4F5" stop-opacity="0"/>
<stop offset="1" stop-color="#D9F4F5"/>
</linearGradient>
<linearGradient id="paint2_linear_71_130" x1="524" y1="39" x2="523" y2="98" gradientUnits="userSpaceOnUse">
<stop stop-color="#B1E4EA"/>
<stop offset="1" stop-color="#B3ECF3" stop-opacity="0.1"/>
</linearGradient>
<linearGradient id="paint3_linear_71_130" x1="604.838" y1="12" x2="605.72" y2="50.9827" gradientUnits="userSpaceOnUse">
<stop stop-color="#B1E4EA"/>
<stop offset="1" stop-color="#B3ECF3" stop-opacity="0"/>
</linearGradient>
<linearGradient id="paint4_linear_71_130" x1="410.272" y1="17" x2="405.716" y2="45.1696" gradientUnits="userSpaceOnUse">
<stop stop-color="white"/>
<stop offset="1" stop-color="white" stop-opacity="0"/>
</linearGradient>
</defs>
</svg>
